# xmcd CD database file
#
# Track frame offsets:
#	150
#	24047
#	43040
#	70747
#	92331
#	109991
#	135646
#	152496
#	172016
#	196176
#	223780
#	242189
#	269636
#	287360
#
# Disc length: 4424 seconds
#
# Revision: 0
# Processed by: cddbd v1.4PL0 Copyright (c) Steve Scherf et al.
# Submitted via: CDex 1.40Beta9
#
DISCID=c011460e
DTITLE=Good Whiskey Blues - From The State Of Teennessee (vol. 8)
DYEAR=1900
DGENRE=Blues
TTITLE0=Dave Duncan - Tangled Up In Your Love
TTITLE1=Harry Dial Band - Born Under A Bad Sign
TTITLE2=Kenny Brown - Jumper On The Line
TTITLE3=Buddy Ray - Root Man
TTITLE4=Perry Welsh and The Mighty Johnsons - Sun Is Shining
TTITLE5=Scott Holt Band - Let's Straighten It Out
TTITLE6=Danny Rhodes And The Messengers - River Road
TTITLE7=Anthony Paule - Don't Let The Same Dog Bite You Twice
TTITLE8=Michael Barclay Blues Band - Don't Want To Touch That Woman
TTITLE9=Red Beans and Rice - The Dark Side
TTITLE10=The Aces - Can't See The Light
TTITLE11=Chuck Day Band - Parchman Farm
TTITLE12=Chris Michie - Sweet Disposition
TTITLE13=Mick Martin and The Blues Rockers - Losing You
EXTD=ID3G: 0
EXTT0=
EXTT1=
EXTT2=
EXTT3=
EXTT4=
EXTT5=
EXTT6=
EXTT7=
EXTT8=
EXTT9=
EXTT10=
EXTT11=
EXTT12=
EXTT13=
PLAYORDER=
